<svg xmlns="http://www.w3.org/2000/svg" viewBox="0 0 748 300" preserveAspectRatio="none"><style>.d{fill:#f2f5f4;opacity:0.176}.f{fill:#f2f5f4;opacity:0.193}.s{fill:none;stroke:#f2f5f4;stroke-width:2.8;opacity:0.252}</style><rect class="d" x="9.7" y="124.4" width="2.6" height="34.1"/><rect class="s" x="4.5" y="134.6" width="13" height="15.4"/><rect class="d" x="31.7" y="112.4" width="2.6" height="33.9"/><rect class="s" x="26.5" y="118.9" width="13" height="15.7"/><rect class="d" x="53.7" y="91.7" width="2.6" height="35.6"/><rect class="s" x="48.5" y="102.7" width="13" height="16.3"/><rect class="d" x="75.7" y="72.4" width="2.6" height="33.6"/><rect class="s" x="70.5" y="82.2" width="13" height="20.5"/><rect class="d" x="97.7" y="57.0" width="2.6" height="36.3"/><rect class="s" x="92.5" y="67.4" width="13" height="14.8"/><rect class="d" x="119.7" y="48.8" width="2.6" height="25.7"/><rect class="s" x="114.5" y="54.3" width="13" height="13.1"/><rect class="d" x="141.7" y="42.3" width="2.6" height="22.4"/><rect class="f" x="136.5" y="54.3" width="13" height="9.0"/><rect class="d" x="163.7" y="50.6" width="2.6" height="37.5"/><rect class="f" x="158.5" y="60.5" width="13" height="24.6"/><rect class="d" x="185.7" y="79.1" width="2.6" height="36.7"/><rect class="f" x="180.5" y="85.0" width="13" height="19.8"/><rect class="d" x="207.7" y="97.9" width="2.6" height="30.3"/><rect class="f" x="202.5" y="104.8" width="13" height="16.7"/><rect class="d" x="229.7" y="116.8" width="2.6" height="36.6"/><rect class="f" x="224.5" y="121.5" width="13" height="24.2"/><rect class="d" x="251.7" y="139.5" width="2.6" height="35.3"/><rect class="f" x="246.5" y="145.7" width="13" height="16.8"/><rect class="d" x="273.7" y="149.9" width="2.6" height="31.3"/><rect class="f" x="268.5" y="162.5" width="13" height="11.0"/><rect class="d" x="295.7" y="161.1" width="2.6" height="40.7"/><rect class="f" x="290.5" y="173.5" width="13" height="18.0"/><rect class="d" x="317.7" y="168.2" width="2.6" height="33.6"/><rect class="s" x="312.5" y="180.2" width="13" height="11.3"/><rect class="d" x="339.7" y="164.0" width="2.6" height="23.8"/><rect class="s" x="334.5" y="168.0" width="13" height="12.1"/><rect class="d" x="361.7" y="133.7" width="2.6" height="41.5"/><rect class="s" x="356.5" y="146.2" width="13" height="21.9"/><rect class="d" x="383.7" y="120.0" width="2.6" height="30.0"/><rect class="s" x="378.5" y="130.9" width="13" height="15.3"/><rect class="d" x="405.7" y="110.1" width="2.6" height="28.6"/><rect class="s" x="400.5" y="121.9" width="13" height="9.0"/><rect class="d" x="427.7" y="97.8" width="2.6" height="29.9"/><rect class="s" x="422.5" y="100.8" width="13" height="21.1"/><rect class="d" x="449.7" y="74.3" width="2.6" height="36.5"/><rect class="s" x="444.5" y="86.0" width="13" height="14.8"/><rect class="d" x="471.7" y="66.0" width="2.6" height="23.5"/><rect class="s" x="466.5" y="74.9" width="13" height="11.0"/><rect class="d" x="493.7" y="63.4" width="2.6" height="30.2"/><rect class="f" x="488.5" y="74.9" width="13" height="13.5"/><rect class="d" x="515.7" y="84.9" width="2.6" height="24.4"/><rect class="f" x="510.5" y="88.5" width="13" height="10.8"/><rect class="d" x="537.7" y="92.4" width="2.6" height="20.3"/><rect class="f" x="532.5" y="99.3" width="13" height="10.1"/><rect class="d" x="559.7" y="103.6" width="2.6" height="32.0"/><rect class="f" x="554.5" y="109.4" width="13" height="18.3"/><rect class="d" x="581.7" y="118.9" width="2.6" height="30.5"/><rect class="f" x="576.5" y="127.7" width="13" height="10.3"/><rect class="d" x="603.7" y="127.6" width="2.6" height="30.3"/><rect class="f" x="598.5" y="138.0" width="13" height="13.9"/><rect class="d" x="625.7" y="140.1" width="2.6" height="34.2"/><rect class="f" x="620.5" y="151.9" width="13" height="9.7"/><rect class="d" x="647.7" y="156.9" width="2.6" height="24.2"/><rect class="f" x="642.5" y="161.6" width="13" height="15.5"/><rect class="d" x="669.7" y="169.1" width="2.6" height="27.7"/><rect class="f" x="664.5" y="177.1" width="13" height="12.6"/><rect class="d" x="691.7" y="177.0" width="2.6" height="43.0"/><rect class="f" x="686.5" y="189.7" width="13" height="18.1"/><rect class="d" x="713.7" y="176.1" width="2.6" height="43.7"/><rect class="s" x="708.5" y="186.6" width="13" height="21.2"/><rect class="d" x="735.7" y="151.5" width="2.6" height="44.8"/><rect class="s" x="730.5" y="161.6" width="13" height="24.9"/></svg>